<?xml version="1.0" standalone="no"?>
<!DOCTYPE svg PUBLIC "-//W3C//DTD SVG 20010904//EN"
 "http://www.w3.org/TR/2001/REC-SVG-20010904/DTD/svg10.dtd">
<svg version="1.0" xmlns="http://www.w3.org/2000/svg"
 width="700.000000pt" height="700.000000pt" viewBox="0 0 700.000000 700.000000"
 preserveAspectRatio="xMidYMid meet">
<metadata>
Created by potrace 1.11, written by Peter Selinger 2001-2013
</metadata>
<g transform="translate(0.000000,700.000000) scale(0.100000,-0.100000)"
fill="#000000" stroke="none">
<path d="M3565 6714 c-5 -1 -95 -5 -200 -8 -104 -3 -208 -7 -230 -10 -22 -3
-65 -8 -95 -11 -30 -4 -71 -9 -90 -11 -19 -3 -62 -9 -95 -15 -33 -6 -71 -13
-85 -16 -194 -34 -665 -178 -705 -214 -5 -5 -15 -9 -22 -9 -14 0 -283 -129
-368 -177 -432 -242 -818 -586 -1100 -980 -75 -105 -110 -159 -179 -276 -47
-81 -139 -275 -184 -388 -106 -266 -168 -519 -199 -819 -15 -147 -7 -582 12
-675 3 -11 7 -36 9 -55 3 -19 10 -60 16 -90 6 -30 13 -68 16 -85 3 -16 14 -63
25 -105 118 -448 309 -823 601 -1185 484 -600 1198 -1036 1974 -1205 44 -10
89 -20 100 -23 10 -3 69 -13 129 -22 61 -9 121 -18 135 -20 73 -11 310 -28
310 -22 0 3 -21 26 -47 53 -183 192 -308 460 -338 732 -6 50 -6 238 0 282 28
205 107 415 216 570 l39 55 -73 12 c-193 33 -362 86 -510 159 -90 44 -253 148
-312 199 -160 138 -273 278 -357 441 -43 82 -113 264 -103 264 2 0 0 11 -5 26
-6 14 -12 37 -15 52 -2 15 -9 50 -14 78 -21 107 -24 265 -24 1254 l0 1015 501
3 502 2 0 -1052 c1 -579 3 -1071 6 -1093 32 -261 193 -447 444 -514 318 -85
652 -5 815 196 71 87 121 209 130 321 2 20 4 511 4 1090 l1 1052 500 0 500 0
1 -22 c4 -146 -1 -2046 -6 -2111 -3 -49 -10 -112 -16 -140 -6 -29 -13 -65 -16
-82 -3 -16 -20 -75 -38 -131 -68 -207 -168 -366 -335 -535 -222 -224 -437
-345 -789 -444 -158 -44 -276 -111 -383 -218 -211 -208 -290 -492 -224 -802
28 -131 126 -296 237 -400 215 -202 493 -274 789 -205 284 66 637 207 915 365
382 217 686 473 980 826 149 178 353 516 445 739 99 236 176 510 206 725 3 22
7 51 10 65 26 157 26 559 -1 765 -50 386 -202 823 -395 1141 -22 36 -40 68
-40 70 0 9 -176 252 -233 323 -136 168 -294 325 -502 500 -64 54 -246 181
-350 245 -60 37 -117 71 -125 76 -8 5 -76 40 -150 78 -345 175 -753 303 -1140
356 -162 22 -196 26 -325 32 -66 3 -124 6 -130 8 -5 2 -14 2 -20 0z"/>
</g>
</svg>
