<?xml version="1.0" encoding="UTF-8" standalone="no"?>
<svg
   xmlns:dc="http://purl.org/dc/elements/1.1/"
   xmlns:cc="http://creativecommons.org/ns#"
   xmlns:rdf="http://www.w3.org/1999/02/22-rdf-syntax-ns#"
   xmlns:svg="http://www.w3.org/2000/svg"
   xmlns="http://www.w3.org/2000/svg"
   xmlns:sodipodi="http://sodipodi.sourceforge.net/DTD/sodipodi-0.dtd"
   xmlns:inkscape="http://www.inkscape.org/namespaces/inkscape"
   width="108"
   height="50.998001"
   viewBox="0 0 108 50.998001"
   version="1.1"
   id="svg25"
   sodipodi:docname="black-label.svg"
   style="fill:none"
   inkscape:version="0.92.3 (2405546, 2018-03-11)">
  <metadata
     id="metadata29">
    <rdf:RDF>
      <cc:Work
         rdf:about="">
        <dc:format>image/svg+xml</dc:format>
        <dc:type
           rdf:resource="http://purl.org/dc/dcmitype/StillImage" />
        <dc:title></dc:title>
      </cc:Work>
    </rdf:RDF>
  </metadata>
  <sodipodi:namedview
     pagecolor="#ffffff"
     bordercolor="#666666"
     borderopacity="1"
     objecttolerance="10"
     gridtolerance="10"
     guidetolerance="10"
     inkscape:pageopacity="0"
     inkscape:pageshadow="2"
     inkscape:window-width="1920"
     inkscape:window-height="1017"
     id="namedview27"
     showgrid="false"
     fit-margin-top="0"
     fit-margin-left="0"
     fit-margin-right="0"
     fit-margin-bottom="0"
     inkscape:zoom="3.5092593"
     inkscape:cx="52"
     inkscape:cy="21.498008"
     inkscape:window-x="-8"
     inkscape:window-y="-8"
     inkscape:window-maximized="1"
     inkscape:current-layer="svg25" />
  <g
     id="g6"
     style="filter:url(#filter0_d)">
    <path
       d="m 68.2565,30.8 c -0.0605,0 -0.1582,-0.0378 -0.2473,-0.0901 -0.0589,-0.0345 -0.0392,-0.1495 0.0195,-0.1844 0.0955,-0.0569 0.2109,-0.1255 0.3262,-0.1255 0.4503,0.0305 0.9097,0.0703 1.3783,0.1109 1.0682,0.0925 2.184,0.1891 3.3473,0.1891 l -0.1451,0.0084 c 2.8653,0.0973 5.6428,0.1972 8.5133,0.3916 3.8395,0.3 6.5961,0.6 10.3372,0.9 1.969,0.1 -0.2954,-0.2 1.6736,0 1.2718,0.0994 2.4464,0.1987 3.717,0.2981 0.0159,0.0013 0.0314,0.0058 0.0459,0.0123 0.0575,0.0259 0.1066,0.034 0.1528,0.0301 C 97.4629,32.333 97.4968,32.0153 97.41,32.001 97.3999,31.9994 97.3926,31.9982 97.3831,31.9945 96.6003,31.6951 95.8175,31.2994 95.0347,31.2 92.475,30.7 94.0502,31 91.4905,30.6 90.506,30.5 90.4076,30.3 89.4231,30.1 c -0.0042,-0.0014 -0.0083,-0.0028 -0.0124,-0.0043 -0.3697,-0.1298 -0.2934,-0.7441 0.0732,-0.8822 0.0238,-0.009 0.0488,-0.0199 0.0725,-0.0292 0.1852,-0.0729 0.3705,0.0157 0.5558,0.0157 2.8551,0.1 1.969,0.2 4.8241,0.3 0.0092,0 0.0186,-2e-4 0.0282,-6e-4 C 95.1328,29.4921 95.1529,29.2201 95.0347,29.1 94.3483,28.5024 93.9549,28.1032 91.6172,27.606 91.5988,27.6021 91.5795,27.6004 91.5608,27.5987 91.5097,27.5939 91.4586,27.5766 91.4075,27.5521 91.246,27.4745 90.6222,27.1 90.8014,27.1 c 0.6891,0 1.4767,0.1 2.1659,0.1 0.0314,0 0.0653,-0.0025 0.1009,-0.0068 0.2199,-0.0264 0.3262,-0.3632 0.1337,-0.4728 -0.0234,-0.0134 -0.0471,-0.0305 -0.0675,-0.0482 -0.003,-0.0026 -0.0061,-0.0052 -0.0092,-0.0078 -0.1679,-0.1411 -0.144,-0.3389 0.057,-0.4264 0.0183,-0.008 0.0375,-0.0168 0.0577,-0.0267 0.0152,-0.0074 0.0308,-0.0141 0.0468,-0.0193 0.0074,-0.0024 0.0147,-0.0048 0.022,-0.0071 0.2658,-0.0838 0.3311,-0.4281 0.0885,-0.5654 -0.0252,-0.0144 -0.0511,-0.0227 -0.0795,-0.029 -1.3289,-0.2916 -1.7345,-0.4894 -3.0632,-0.7809 -0.0287,-0.0063 -0.0588,-0.0087 -0.0877,-0.0146 -0.0122,-0.0025 -0.0251,-0.0059 -0.0385,-0.01 -0.1936,-0.0597 -0.2186,-0.385 -0.0161,-0.385 0.1969,0 0.2954,-0.1 0.4923,-0.1 -0.1969,0 -0.2954,-0.1 -0.4923,-0.2 C 89.3246,23.6 88.537,23.2 87.651,22.8 87.2572,22.6 86.8634,22.4 86.4696,22.4 82.1378,21.9 77.7076,21.5 73.3758,21 73.0804,21 73.061,20.5532 73.3533,20.5097 73.395,20.5035 73.4355,20.5 73.4743,20.5 l 7.679,0.6 5.855,0.5947 c 0.0346,0.0035 0.0755,0.0136 0.109,0.0225 0.3309,0.0876 0.7405,-0.4965 0.4646,-0.6991 -0.0093,-0.0068 -0.019,-0.0129 -0.0294,-0.0181 -0.6767,-0.2946 -1.3534,-0.4927 -2.0301,-0.7838 -0.0248,-0.0107 -0.05,-0.0249 -0.0727,-0.0397 -0.3173,-0.2066 -0.2741,-0.6385 0.0846,-0.7598 0.0095,-0.0032 0.0189,-0.0064 0.0284,-0.0096 0.0139,-0.0047 0.0284,-0.011 0.0417,-0.0173 0.2265,-0.1072 0.2478,-0.343 0,-0.38 C 85.562,19.0035 85.5219,19 85.4851,19 83.2208,18.7 80.9564,18.5 78.6921,18.2 78.6622,18.2 78.6345,18.1954 78.6084,18.1872 78.3713,18.1127 78.3451,17.6 78.5937,17.6 c 1.4767,0 3.0519,-0.1 4.6271,0 1.2798,0 2.5597,0.4 3.8395,0.3 0.6892,0 1.2798,-0.8 1.7721,-1.4 0.0802,-0.0814 -0.2965,-0.5606 -0.6518,-0.8438 C 88.0339,15.5393 87.856,15.4722 87.6742,15.426 87.0742,15.2737 86.4644,15.1868 85.7804,15.1 80.1688,14.7 74.4588,14.3 68.7487,14 63.6411,13.7007 58.6316,13.6005 53.5244,13.4014 c -0.0235,-9e-4 -0.0529,-0.0058 -0.0756,-0.0117 -0.3117,-0.0805 -0.2959,-0.4862 0.026,-0.4896 0.0047,-10e-5 0.0095,-10e-5 0.0142,-10e-5 7.876,0.2 15.6535,0.4 23.5295,0.7 3.6426,0.1 7.1868,0.4 10.8294,0.5 0.4995,0 0.7276,-0.845 0.3039,-1.1095 C 88.0862,12.9495 88.0179,12.9182 87.9463,12.9 86.7745,12.5032 85.5059,12.2049 84.3325,11.8097 84.3133,11.8033 84.2964,11.7966 84.2788,11.7865 84.0078,11.6309 84.1167,11.0848 84.4202,11.0103 84.4471,11.0037 84.4739,11 84.5006,11 c 1.2799,-0.1 2.5597,-0.1 3.8395,-0.2 0.0664,0 0.1551,-0.0341 0.2436,-0.0831 0.278,-0.154 0.2988,-0.472 0.2479,-0.78567 C 88.753,9.44677 88.6627,8.97524 87.8479,8.9 87.7495,8.9 87.7494,8.4 87.651,8.2 87.6038,8.10416 87.5792,7.98536 87.5556,7.8766 87.5135,7.68298 87.3733,7.5396 87.194,7.45534 86.9572,7.34409 86.686,7.25483 86.413,7.1209 86.3854,7.10735 86.3499,7.10095 86.3197,7.09525 86.1493,7.06306 86.2548,6.71822 86.4063,6.6338 86.4136,6.62969 86.4212,6.62555 86.4288,6.6214 86.4554,6.60701 86.4855,6.6006 86.5156,6.59814 86.5189,6.59787 86.5221,6.59758 86.5252,6.59727 86.6913,6.58079 86.735,6.3 86.5681,6.3 84.3037,6 82.0394,5.5 79.6766,5.4 L 78.8633,5.363 C 72.5459,5.0755 66.3116,4.79178 59.9867,4.6 54.7689,4.4 49.6495,4.3 44.4317,4.2 H 34.5868 C 30.7472,4.1 26.9077,4 23.0682,4 17.2597,4 11.5496,4.2 5.74107,4.3 4.49768,4.3207 3.25008,4.34141 2,4.36123 V 40.5824 c 2.46124,0.0267 4.92247,0.0721 7.38371,0.1176 7.97439,0.1 15.94879,0.1 23.92319,0.4 9.1558,0.3 18.4101,0.7 27.5659,1.3 10.3371,0.7 20.5759,1.7 30.8146,2.8 4.6663,0.4937 5.0128,0.9875 9.5706,1.77 0.115,0.0198 0.214,0.0333 0.33,0.026 0.223,-0.014 0.409,-0.1989 0.412,-0.4219 0.002,-0.1172 -0.023,-0.2224 -0.074,-0.2741 -0.336,-0.4266 -0.672,-0.8532 -1.313,-1.2797 -0.234,-0.155 -0.48,-0.3086 -0.626,-0.5474 -0.2518,-0.4121 -0.0628,-0.6996 0.616,-0.8627 0.028,-0.0069 0.057,-0.0172 0.083,-0.0298 0.037,-0.0172 0.07,-0.031 0.101,-0.043 0.175,-0.0671 0.263,-0.3527 0.092,-0.4291 -0.031,-0.0141 -0.052,-0.0147 -0.084,-0.0273 -1.264,-0.4961 -2.5289,-1.0848 -3.8898,-1.381 -0.3363,-0.0854 -0.5155,-0.1389 -0.6047,-0.1712 -0.0119,-0.0043 -0.0221,-0.0082 -0.031,-0.0117 -0.0699,0.0079 -0.2482,0.008 -0.6441,-0.0171 -1.8705,-0.1 -2.7566,-0.1 -4.5287,-0.1 -0.3938,0 -0.7876,-0.1 -1.1814,-0.2 C 89.2262,41 88.537,40.8 87.8479,40.7 87.4541,40.6 86.9619,40.6 86.5681,40.5 84.8944,40.2 83.2208,39.4 81.3502,40 81.0366,40.0796 80.4733,39.9056 80.1077,39.6799 79.9401,39.5764 79.812,39.4185 79.7525,39.2308 79.6465,38.8958 79.6249,38.4525 79.775,38.3 80.0704,38 80.6611,38 81.1533,38 c 3.052,0.3 6.0054,0.6 8.9589,1 4.2334,0.6 2.3628,0.3 6.5962,0.8 0.2994,0 0.4085,-0.4887 0.1268,-0.5901 -0.0095,-0.0034 -0.019,-0.0067 -0.0284,-0.0099 -2.3628,-0.6 -1.6737,-0.7 -4.1349,-1.1 -2.855,-0.4 -2.7566,-0.3 -5.7101,-0.7 -0.886,-0.1 -1.9689,-0.4 -2.5596,-0.9 -0.9845,-0.8 -3.052,-1.3 -4.3318,-0.7 -1.5752,0.7 -3.1504,0.5 -4.2333,-0.6 -0.1969,-0.2 -0.4923,-0.3 -0.7876,-0.3 -1.3783,0 -2.7566,0 -4.0365,-0.1 -0.3694,0 -0.7389,-0.3521 -1.1083,-0.5607 -0.0478,-0.0271 -0.1086,-0.0782 -0.1152,-0.1327 -0.0176,-0.1479 0.1249,-0.2301 0.2719,-0.2543 C 70.3786,33.8 70.6958,33.8 71.013,33.8 c 0.2954,0 0.4923,0.1 0.6892,0.1 2.2643,0.3 4.6271,-0.3 6.793,0.8 0.1969,0.1 0.4922,0 0.6891,0 2.2644,0.2 4.4303,0.5 6.6946,0.6 1.1814,0.1 2.5597,0.3 3.5442,-0.1 1.1563,-0.4517 1.0268,-0.3321 1.6445,0.1377 0.1472,0.112 0.2984,0.2353 0.4661,0.3132 0.2266,0.1053 0.4592,-0.0178 0.6803,-0.1342 1.0427,-0.549 1.0707,-0.208 2.3284,-0.1167 1.6737,0.1 2.4613,0 4.1349,0 0.0258,0 0.0498,-0.0017 0.0726,-0.0049 0.2283,-0.0319 0.2654,-0.366 0.0627,-0.4758 C 98.7939,34.9092 98.7655,34.8971 98.7451,34.891 98.0661,34.6882 97.3858,34.2985 96.6099,34.2 93.3611,33.7 93.4595,33.4 90.2107,33 85.0913,32.4 79.8735,31.9 74.6557,31.3 73.9875,31.2031 73.4119,30.9181 72.7495,30.7186 71.1984,30.8 69.7274,30.8 68.2565,30.8 Z m 10.4221,7.9452 C 78.7537,38.8424 78.6812,39 78.5584,39 H 78.003 c -0.1379,0 -0.2757,-0.004 -0.4135,-0.008 -0.4625,-0.0134 -0.9251,-0.0268 -1.3876,0.1109 -0.1808,0.0538 -0.3587,0.1201 -0.5441,0.1555 -0.7566,0.1444 -1.4751,0.1377 -1.8435,-0.6541 -0.0315,-0.0677 -0.0798,-0.1403 -0.0702,-0.2143 0.0255,-0.1971 0.2463,-0.2825 0.4447,-0.2718 0.6603,0.0358 1.2608,0.0571 1.8345,0.0775 0.7465,0.0265 1.4478,0.0514 2.1766,0.1043 0.1345,0 0.315,0.2335 0.4787,0.4452 z M 71.9742,38.715 c 0.2118,0.1229 0.1883,0.4606 -0.0555,0.484 -0.0247,0.0023 -0.0318,-0.002 -0.0558,-0.0085 -0.2715,-0.0743 -0.4962,-0.1961 -0.708,-0.331 -0.1092,-0.0696 -0.1014,-0.2369 0.0058,-0.3095 0.1501,-0.1016 0.3422,-0.1024 0.5006,-0.0142 0.0984,0.0547 0.1927,0.1095 0.287,0.1642 0.0086,0.005 0.0173,0.01 0.0259,0.015 z M 64.6138,37.9 c 1.1814,0.5 2.3628,0.7 3.6427,-0.1 0.1785,-0.1209 0.465,-0.1322 0.7724,-0.1443 0.0409,-0.0016 0.0822,-0.0032 0.1237,-0.0051 0.2505,-0.0115 0.4868,0.1839 0.5048,0.4341 0.0023,0.0324 0.0047,0.0647 0.0069,0.0969 C 69.7009,38.7162 69.3831,39.2 68.8472,39.2 68.4534,39.15 68.035,39.125 67.6165,39.1 67.1981,39.075 66.7797,39.05 66.3859,39 66.0906,38.95 65.7952,38.925 65.4999,38.9 65.2045,38.875 64.9092,38.85 64.6138,38.8 64.1708,38.75 63.7524,38.7 63.334,38.65 63.0177,38.6122 62.7014,38.5744 62.3744,38.5366 62.1615,38.512 61.9525,38.4613 61.7429,38.417 61.7152,38.4111 61.6878,38.4056 61.6603,38.4 61.654,38.3987 61.6478,38.3974 61.6414,38.3962 61.4659,38.3604 61.4194,38.1586 61.5619,38.05 c 0.008,-0.0061 0.016,-0.0122 0.024,-0.0183 0.188,-0.1435 0.3785,-0.2883 0.5667,-0.4317 0.1825,-0.1391 0.4175,-0.1617 0.6423,-0.1154 0.173,0.0357 0.35,0.0646 0.528,0.0936 0.4375,0.0713 0.8816,0.1436 1.2909,0.3218 z m -1.208,2.391 c 0.1533,0.1127 0.1899,0.3523 0.0431,0.4733 -0.0896,0.0738 -0.1868,0.1399 -0.2985,0.1912 -0.0719,0.0331 -0.149,0.0882 -0.2237,0.0618 C 62.9144,41.013 62.9015,41.0071 62.8883,41 62.6652,40.8805 62.6889,40.5553 62.8665,40.3749 l 0.0393,-0.04 c 0.134,-0.1361 0.3461,-0.1571 0.5,-0.0439 z M 61.669,37.3076 c -0.0396,-0.005 -0.0597,-0.0557 -0.0317,-0.0841 0.0137,-0.014 0.0349,-0.0175 0.0524,-0.0086 0.1871,0.0948 0.3742,0.1851 0.5614,0.1851 -0.0985,0 -0.2216,-0.025 -0.3446,-0.05 -0.0816,-0.0166 -0.1631,-0.0331 -0.2375,-0.0424 z M 62.4479,30.4 c -0.2223,0 -0.1837,-0.2985 0.0387,-0.2999 0.019,-10e-5 0.0388,-10e-5 0.0598,-10e-5 h 0.937 c 0.0262,0 0.0475,-0.0213 0.0475,-0.0475 0,-0.0281 0.0243,-0.05 0.0522,-0.0472 L 66.4844,30.3 c 0.0487,0 0.0974,0.0245 0.1461,0.0613 0.0604,0.0457 0.0241,0.1644 -0.0477,0.1887 -0.0738,0.025 -0.1476,0.05 -0.1969,0.05 -1.3783,0 -2.6581,-0.1 -3.938,-0.2 z m 3.0052,7.251 c -0.0614,-0.1492 0.0265,-0.3087 0.1688,-0.3848 0.0682,-0.0365 0.1354,-0.0662 0.1733,-0.0662 0.1192,0 0.2024,0.0733 0.2931,0.1534 0.0921,0.0812 0.1119,0.2365 0.0195,0.3173 -0.0451,0.0394 -0.1004,0.0857 -0.1714,0.1427 -0.1354,0.1085 -0.3386,0.098 -0.4273,-0.0511 -0.022,-0.0371 -0.0407,-0.0742 -0.056,-0.1113 z m 0.4114,-3.1455 c -0.0956,-0.0292 -0.0937,-0.1746 0.0029,-0.2003 0.2635,-0.0699 0.5515,-0.1523 0.9156,-0.2733 0.0621,-0.0206 0.1291,-0.0238 0.1919,-0.0054 0.1351,0.0394 0.2712,0.0886 0.4122,0.1396 0.1842,0.0666 0.1762,0.3721 -0.0154,0.4123 -0.183,0.0384 -0.3718,0.0769 -0.561,0.1153 -0.0206,0.0042 -0.0416,0.0064 -0.0626,0.0059 -0.272,-0.0071 -0.5874,-0.1035 -0.8836,-0.1941 z M 59.3551,30.004 c 0.1023,0.0744 0.0858,0.2807 -0.0361,0.3147 -0.1712,0.0477 -0.3425,0.0813 -0.5137,0.0813 -2.3628,-0.1 -4.7256,-0.3 -6.9899,-0.5 -0.5747,-0.0973 -1.1494,-0.0999 -1.724,-0.1 -0.0266,0 -0.0481,0.0215 -0.0481,0.0481 0,0.028 -0.0238,0.05 -0.0518,0.0478 C 49.3676,29.846 48.721,29.773 48.0743,29.7 c -0.6645,-0.075 -1.329,-0.15 -1.969,-0.2 -0.1633,0 -0.2965,-0.0306 -0.4163,-0.0748 -0.0709,-0.0262 -0.0508,-0.1566 0.0225,-0.1752 0.0985,-0.025 0.1969,-0.05 0.2954,-0.05 1.3783,0 2.855,0 4.2333,0.1 2.855,0.1 5.8085,0.3 8.6636,0.5 0.1706,0 0.3084,0.1001 0.4513,0.204 z m -4.8771,7.4314 c 0.3476,0.0782 0.3285,0.5971 0.0102,0.7574 -0.0066,0.0034 -0.0132,0.0067 -0.0197,0.01 -0.1185,0.0598 -0.26,0.0509 -0.3701,-0.0232 C 53.9728,38.0951 53.8508,38.0144 53.7405,37.9454 53.6381,37.8814 53.6329,37.71 53.73,37.6382 53.8853,37.5233 54.0519,37.4 54.1782,37.4 c 0.0999,0 0.1998,0.0129 0.2998,0.0354 z m -1.9921,-0.7665 c 0.1272,0.0579 0.146,0.2411 0.0238,0.3087 -0.2241,0.1238 -0.4771,0.235 -0.7322,0.3063 -0.0401,0.0112 -0.0789,0.029 -0.1202,0.0343 -0.0953,0.0122 -0.2063,-0.0453 -0.3158,-0.1284 -0.1685,-0.1279 -0.1303,-0.4037 0.0354,-0.5352 0.213,-0.1688 0.4932,-0.232 0.7483,-0.1382 0.1336,0.0491 0.2512,0.1026 0.3607,0.1525 z m -4.5028,3.3184 c -0.1259,0.075 -0.2814,0.0735 -0.4121,0.0071 l -0.7599,-0.386 c -0.0796,-0.0404 -0.0723,-0.1597 0.0108,-0.192 0.257,-0.0997 0.5578,-0.2164 0.8586,-0.2164 0.2525,0 0.4645,0.1233 0.662,0.2382 0.1011,0.0588 0.0987,0.26 -8e-4,0.3217 -0.025,0.0155 -0.0502,0.0315 -0.0758,0.0481 l -0.0576,0.0374 c -0.0693,0.0451 -0.1429,0.0929 -0.2252,0.1419 z m 1.632,-26.8198 c -0.0403,0.0204 -0.0878,0.0204 -0.1281,0 L 49.3474,13.0966 C 49.25,13.0471 49.2756,12.8303 49.3751,12.7849 49.4725,12.7404 49.561,12.7 49.6495,12.7 c 0.0025,0 0.005,1e-4 0.0076,2e-4 0.2186,0.0104 0.2102,0.3392 0.0151,0.4383 z m -5.7763,16.0859 c 0.092,0.0812 0.1057,0.2331 -0.0066,0.2826 -0.087,0.0383 -0.1868,0.064 -0.2865,0.064 -0.3246,0 -0.6492,-0.0109 -0.9774,-0.0219 -0.667,-0.0223 -1.3487,-0.0451 -2.0746,0.0219 -0.3938,0 -0.763,-0.025 -1.1322,-0.05 -0.3691,-0.025 -0.7383,-0.05 -1.1321,-0.05 -0.2337,0 -0.4058,-0.0626 -0.6138,-0.1383 -0.0561,-0.0204 -0.0561,-0.103 0,-0.1234 0.1689,-0.0614 0.3141,-0.1143 0.4878,-0.132 0.0836,-0.0085 0.1677,-0.0127 0.251,-0.0235 0.6171,-0.0803 1.1575,-0.0827 1.6955,-0.0828 0.0276,0 0.05,-0.0224 0.05,-0.05 0,-0.0276 0.0223,-0.05 0.05,-0.0499 1.0013,0.0028 2.0851,0.0893 3.1742,0.1812 L 43.5457,29.1 c 0.1192,0 0.2023,0.0733 0.2931,0.1534 z M 31.6333,28.7 c 1.4767,0 2.9535,0 4.4302,0.1 0.1504,0 0.3583,0.1167 0.5358,0.2164 0.0568,0.0319 0.0507,0.1222 -0.0079,0.1504 -0.0486,0.0234 -0.0952,0.0483 -0.141,0.0727 -0.1553,0.0828 -0.3012,0.1605 -0.4854,0.1605 -1.6736,0 -3.2488,-0.1 -4.824,-0.2 L 19.9178,28.9 c -0.1497,0 -0.3247,0 -0.4994,-0.013 -0.3263,-0.0244 -0.6613,-0.0831 -0.9502,-0.2367 -0.0067,-0.0036 -0.0135,-0.0072 -0.0202,-0.0108 -0.0549,-0.0292 -0.0344,-0.1781 0.0256,-0.1941 0.1095,-0.0292 0.2278,-0.0675 0.3482,-0.1078 0.0548,-0.0183 0.1115,0.0223 0.1115,0.08 0,0.0458 0.0366,0.0833 0.0824,0.0843 2.0892,0.0487 4.1784,0.0734 6.2676,0.0981 2.1166,0.025 4.2333,0.05 6.35,0.1 z M 11.5767,28.3055 c 0.299,0.0608 0.2994,0.5296 0.0078,0.6195 -0.0522,0.0161 -0.1049,0.0329 -0.1584,0.0505 -0.0482,0.0159 -0.0996,0.0202 -0.1495,0.0111 -0.3145,-0.0577 -0.6278,-0.1412 -0.9251,-0.2205 -0.1381,-0.0369 -0.1303,-0.2579 0.0106,-0.2817 l 1.0617,-0.1798 C 11.442,28.3015 11.4604,28.3 11.4788,28.3 h 0.0431 c 0.0184,0 0.0368,0.0018 0.0548,0.0055 z M 7.90462,28.4037 C 8.16545,28.4238 8.16858,28.8 7.90697,28.8 6.62713,28.7 5.44573,28.7 3.96899,28.6 c -0.11983,0 -0.09795,-0.1386 0.01411,-0.1811 0.02454,-0.0093 0.04761,-0.0162 0.07044,-0.0183 0.00922,-8e-4 0.01854,-0.0014 0.02768,-0.0029 0.51022,-0.0853 0.94833,-0.0961 1.50614,-0.0975 0.1678,-4e-4 0.33507,0.0156 0.50167,0.0357 C 6.62012,28.4 7.21432,28.4 7.80852,28.4 c 0.03323,0 0.06522,0.0013 0.0961,0.0037 z M 39.5613,13.0883 c -0.2912,-0.0725 -0.2907,-0.465 0.009,-0.4815 0.08,-0.0044 0.1583,-0.0068 0.2343,-0.0068 0.298,0 0.6525,0.0573 1.0206,0.1285 0.0793,0.0153 0.0797,0.1296 8e-4,0.1465 -0.3383,0.0723 -0.6766,0.1447 -1.164,0.217 -0.0358,0.0053 -0.0655,0.0051 -0.1007,-0.0037 z m 17.923,24.7327 c 0.154,0.1247 0.339,0.1912 0.4931,0.0667 0.0127,-0.0102 0.0256,-0.0207 0.0388,-0.0315 0.1367,-0.1115 0.1327,-0.3953 -0.0202,-0.4833 -0.0422,-0.0243 -0.0841,-0.0486 -0.126,-0.0729 -0.066,-0.0383 -0.1321,-0.0767 -0.1995,-0.115 -0.2013,-0.1144 -0.4548,-0.0689 -0.6682,0.0209 -0.0921,0.0387 -0.0898,0.1461 -0.0108,0.2073 0.0959,0.0744 0.1919,0.1556 0.2879,0.2368 0.0092,0.0078 0.0185,0.0157 0.0277,0.0235 0.0591,0.05 0.1182,0.0997 0.1772,0.1475 z m 25.0938,-1.6446 c -0.1451,-0.1091 -0.3423,-0.1101 -0.4887,-0.0026 -0.0079,0.0058 -0.0157,0.0115 -0.0234,0.0172 -0.0445,0.0327 -0.0842,0.0619 -0.1232,0.089 -0.0793,0.0551 -0.0793,0.1847 0.0044,0.2328 0.0587,0.0337 0.1212,0.0696 0.1862,0.1051 0.2549,0.139 0.5516,0.1671 0.792,0.0043 0.0716,-0.0484 0.0611,-0.1749 -0.0143,-0.2172 -0.1147,-0.0644 -0.2199,-0.1436 -0.333,-0.2286 z"
       id="path2"
       inkscape:connector-curvature="0"
       style="clip-rule:evenodd;fill:#141414;fill-rule:evenodd" />
    <path
       d="m 61.669,37.3076 c -0.0396,-0.005 -0.0597,-0.0557 -0.0317,-0.0841 0.0137,-0.014 0.0349,-0.0175 0.0524,-0.0086 0.1871,0.0948 0.3742,0.1851 0.5614,0.1851 -0.0985,0 -0.2216,-0.025 -0.3446,-0.05 -0.0816,-0.0166 -0.1631,-0.0331 -0.2375,-0.0424 z m 11.2664,-6.5992 c -0.0621,0.0035 -0.1241,0.0069 -0.1859,0.0102 C 72.7286,30.7123 72.7077,30.7061 72.6867,30.7 Z m 9.1306,5.4826 c 0.0077,-0.0057 0.0155,-0.0114 0.0234,-0.0172 0.1464,-0.1075 0.3436,-0.1065 0.4887,0.0026 0.1131,0.085 0.2183,0.1642 0.333,0.2286 0.0754,0.0423 0.0859,0.1688 0.0143,0.2172 -0.2404,0.1628 -0.5371,0.1347 -0.792,-0.0043 -0.065,-0.0355 -0.1275,-0.0714 -0.1862,-0.1051 -0.0837,-0.0481 -0.0837,-0.1777 -0.0044,-0.2328 0.039,-0.0271 0.0787,-0.0563 0.1232,-0.089 z"
       id="path4"
       inkscape:connector-curvature="0"
       style="clip-rule:evenodd;fill:#141414;fill-rule:evenodd" />
  </g>
  <defs
     id="defs23">
    <filter
       id="filter0_d"
       x="0"
       y="0"
       width="108"
       height="50.998001"
       filterUnits="userSpaceOnUse"
       style="color-interpolation-filters:sRGB">
      <feFlood
         flood-opacity="0"
         result="BackgroundImageFix"
         id="feFlood8" />
      <feColorMatrix
         in="SourceAlpha"
         type="matrix"
         values="0 0 0 0 0 0 0 0 0 0 0 0 0 0 0 0 0 0 127 0"
         id="feColorMatrix10" />
      <feOffset
         dx="2"
         id="feOffset12" />
      <feGaussianBlur
         stdDeviation="2"
         id="feGaussianBlur14" />
      <feColorMatrix
         type="matrix"
         values="0 0 0 0 0 0 0 0 0 0 0 0 0 0 0 0 0 0 0.6 0"
         id="feColorMatrix16" />
      <feBlend
         mode="normal"
         in2="BackgroundImageFix"
         result="effect1_dropShadow"
         id="feBlend18" />
      <feBlend
         mode="normal"
         in="SourceGraphic"
         in2="effect1_dropShadow"
         result="shape"
         id="feBlend20" />
    </filter>
  </defs>
</svg>
