<?xml version="1.0" encoding="UTF-8" standalone="no"?><!DOCTYPE svg PUBLIC "-//W3C//DTD SVG 1.1//EN" "http://www.w3.org/Graphics/SVG/1.1/DTD/svg11.dtd"><svg width="100%" height="100%" viewBox="0 0 18 16" version="1.1" xmlns="http://www.w3.org/2000/svg" xmlns:xlink="http://www.w3.org/1999/xlink" xml:space="preserve" xmlns:serif="http://www.serif.com/" style="fill-rule:evenodd;clip-rule:evenodd;stroke-linecap:round;stroke-linejoin:round;stroke-miterlimit:1.5;"><path d="M9,3.242l-0.664,-0.738c-1.434,-1.593 -3.455,-1.949 -5,-1.309c-1.49,0.618 -2.72,2.251 -2.388,5.076c0.2,1.694 1.483,3.463 3.244,5.06c1.576,1.43 3.412,2.611 4.808,3.351c1.396,-0.74 3.232,-1.921 4.808,-3.351c1.761,-1.597 3.045,-3.366 3.244,-5.06c0.332,-2.825 -0.898,-4.458 -2.388,-5.076c-1.545,-0.64 -3.566,-0.284 -4.999,1.309l-0.665,0.738Zm0,12.446c-2.98,-1.49 -8.463,-5.258 -8.94,-9.312c-0.699,-5.946 4.841,-7.951 8.295,-5.09c0.225,0.186 0.44,0.393 0.645,0.62c0.205,-0.227 0.42,-0.434 0.645,-0.62c3.454,-2.861 8.994,-0.856 8.295,5.09c-0.477,4.054 -5.96,7.822 -8.94,9.312Z" style="fill:#fff;"/><path d="M9,3c0,0 -4.205,-3.777 -7,-1c-2.795,2.777 0.13,8.48 7,13l3,-2l2,-2l2,-2l1,-2l0,-2l0,-1c0,0 -2.392,-5.875 -8,-1" style="fill:#fff;stroke:#fff;stroke-width:1px;"/></svg>