<svg width="22" height="22" viewBox="0 0 22 22" fill="none" xmlns="http://www.w3.org/2000/svg">
<mask id="mask0" mask-type="alpha" maskUnits="userSpaceOnUse" x="0" y="0" width="22" height="22">
<rect width="22" height="22" fill="#C4C4C4"/>
</mask>
<g mask="url(#mask0)">
<path fill-rule="evenodd" clip-rule="evenodd" d="M11 7.24236L10.3355 6.50405C8.90218 4.91145 6.88067 4.55489 5.3361 5.19533C3.84643 5.813 2.61583 7.44612 2.9482 10.2714C3.1475 11.9655 4.43078 13.7337 6.19214 15.3311C7.76825 16.7606 9.60366 17.942 11 18.6823C12.3964 17.942 14.2318 16.7606 15.8079 15.3311C17.5692 13.7337 18.8525 11.9655 19.0518 10.2714C19.3842 7.44612 18.1536 5.813 16.6639 5.19533C15.1193 4.55489 13.0978 4.91145 11.6645 6.50405L11 7.24236ZM11 19.688C8.02014 18.198 2.53726 14.4296 2.06036 10.3758C1.36089 4.43009 6.90108 2.42516 10.3552 5.28622C10.5797 5.47218 10.7954 5.67869 11 5.90602C11.2046 5.67869 11.4203 5.47218 11.6448 5.28622C15.0989 2.42516 20.6391 4.43009 19.9396 10.3758C19.4627 14.4296 13.9799 18.198 11 19.688Z" fill="white"/>
</g>
</svg>
