<svg width="108" height="51" viewBox="0 0 108 51" fill="none" xmlns="http://www.w3.org/2000/svg">
<g filter="url(#filter0_d)">
<path fill-rule="evenodd" clip-rule="evenodd" d="M68.2565 30.8C68.196 30.8 68.0983 30.7622 68.0092 30.7099C67.9503 30.6754 67.97 30.5604 68.0287 30.5255C68.1242 30.4686 68.2396 30.4 68.3549 30.4C68.8052 30.4305 69.2646 30.4703 69.7332 30.5109C70.8014 30.6034 71.9172 30.7 73.0805 30.7L72.9354 30.7084C75.8007 30.8057 78.5782 30.9056 81.4487 31.1C85.2882 31.4 88.0448 31.7 91.7859 32C93.7549 32.1 91.4905 31.8 93.4595 32C94.7313 32.0994 95.9059 32.1987 97.1765 32.2981C97.1924 32.2994 97.2079 32.3039 97.2224 32.3104C97.2799 32.3363 97.329 32.3444 97.3752 32.3405C97.4629 32.333 97.4968 32.0153 97.41 32.001C97.3999 31.9994 97.3926 31.9982 97.3831 31.9945C96.6003 31.6951 95.8175 31.2994 95.0347 31.2C92.475 30.7 94.0502 31 91.4905 30.6C90.506 30.5 90.4076 30.3 89.4231 30.1C89.4189 30.0986 89.4148 30.0972 89.4107 30.0957C89.041 29.9659 89.1173 29.3516 89.4839 29.2135C89.5077 29.2045 89.5327 29.1936 89.5564 29.1843C89.7416 29.1114 89.9269 29.2 90.1122 29.2C92.9673 29.3 92.0812 29.4 94.9363 29.5C94.9455 29.5 94.9549 29.4998 94.9645 29.4994C95.1328 29.4921 95.1529 29.2201 95.0347 29.1C94.3483 28.5024 93.9549 28.1032 91.6172 27.606C91.5988 27.6021 91.5795 27.6004 91.5608 27.5987C91.5097 27.5939 91.4586 27.5766 91.4075 27.5521C91.246 27.4745 90.6222 27.1 90.8014 27.1C91.4905 27.1 92.2781 27.2 92.9673 27.2C92.9987 27.2 93.0326 27.1975 93.0682 27.1932C93.2881 27.1668 93.3944 26.83 93.2019 26.7204C93.1785 26.707 93.1548 26.6899 93.1344 26.6722C93.1314 26.6696 93.1283 26.667 93.1252 26.6644C92.9573 26.5233 92.9812 26.3255 93.1822 26.238C93.2005 26.23 93.2197 26.2212 93.2399 26.2113C93.2551 26.2039 93.2707 26.1972 93.2867 26.192C93.2941 26.1896 93.3014 26.1872 93.3087 26.1849C93.5745 26.1011 93.6398 25.7568 93.3972 25.6195C93.372 25.6051 93.3461 25.5968 93.3177 25.5905C91.9888 25.2989 91.5832 25.1011 90.2545 24.8096C90.2258 24.8033 90.1957 24.8009 90.1668 24.795C90.1546 24.7925 90.1417 24.7891 90.1283 24.785C89.9347 24.7253 89.9097 24.4 90.1122 24.4C90.3091 24.4 90.4076 24.3 90.6045 24.3C90.4076 24.3 90.3091 24.2 90.1122 24.1C89.3246 23.6 88.537 23.2 87.651 22.8C87.2572 22.6 86.8634 22.4 86.4696 22.4C82.1378 21.9 77.7076 21.5 73.3758 21C73.0804 21 73.061 20.5532 73.3533 20.5097C73.395 20.5035 73.4355 20.5 73.4743 20.5L81.1533 21.1L87.0083 21.6947C87.0429 21.6982 87.0838 21.7083 87.1173 21.7172C87.4482 21.8048 87.8578 21.2207 87.5819 21.0181C87.5726 21.0113 87.5629 21.0052 87.5525 21C86.8758 20.7054 86.1991 20.5073 85.5224 20.2162C85.4976 20.2055 85.4724 20.1913 85.4497 20.1765C85.1324 19.9699 85.1756 19.538 85.5343 19.4167C85.5438 19.4135 85.5532 19.4103 85.5627 19.4071C85.5766 19.4024 85.5911 19.3961 85.6044 19.3898C85.8309 19.2826 85.8522 19.0468 85.6044 19.0098C85.562 19.0035 85.5219 19 85.4851 19C83.2208 18.7 80.9564 18.5 78.6921 18.2C78.6622 18.2 78.6345 18.1954 78.6084 18.1872C78.3713 18.1127 78.3451 17.6 78.5937 17.6C80.0704 17.6 81.6456 17.5 83.2208 17.6C84.5006 17.6 85.7805 18 87.0603 17.9C87.7495 17.9 88.3401 17.1 88.8324 16.5C88.9126 16.4186 88.5359 15.9394 88.1806 15.6562C88.0339 15.5393 87.856 15.4722 87.6742 15.426C87.0742 15.2737 86.4644 15.1868 85.7804 15.1C80.1688 14.7 74.4588 14.3 68.7487 14C63.6411 13.7007 58.6316 13.6005 53.5244 13.4014C53.5009 13.4005 53.4715 13.3956 53.4488 13.3897C53.1371 13.3092 53.1529 12.9035 53.4748 12.9001C53.4795 12.9 53.4843 12.9 53.489 12.9C61.365 13.1 69.1425 13.3 77.0185 13.6C80.6611 13.7 84.2053 14 87.8479 14.1C88.3474 14.1 88.5755 13.255 88.1518 12.9905C88.0862 12.9495 88.0179 12.9182 87.9463 12.9C86.7745 12.5032 85.5059 12.2049 84.3325 11.8097C84.3133 11.8033 84.2964 11.7966 84.2788 11.7865C84.0078 11.6309 84.1167 11.0848 84.4202 11.0103C84.4471 11.0037 84.4739 11 84.5006 11C85.7805 10.9 87.0603 10.9 88.3401 10.8C88.4065 10.8 88.4952 10.7659 88.5837 10.7169C88.8617 10.5629 88.8825 10.2449 88.8316 9.93123C88.753 9.44677 88.6627 8.97524 87.8479 8.9C87.7495 8.9 87.7494 8.4 87.651 8.2C87.6038 8.10416 87.5792 7.98536 87.5556 7.8766C87.5135 7.68298 87.3733 7.5396 87.194 7.45534C86.9572 7.34409 86.686 7.25483 86.413 7.1209C86.3854 7.10735 86.3499 7.10095 86.3197 7.09525C86.1493 7.06306 86.2548 6.71822 86.4063 6.6338C86.4136 6.62969 86.4212 6.62555 86.4288 6.6214C86.4554 6.60701 86.4855 6.6006 86.5156 6.59814C86.5189 6.59787 86.5221 6.59758 86.5252 6.59727C86.6913 6.58079 86.735 6.3 86.5681 6.3C84.3037 6 82.0394 5.5 79.6766 5.4L78.8633 5.363C72.5459 5.0755 66.3116 4.79178 59.9867 4.6C54.7689 4.4 49.6495 4.3 44.4317 4.2H34.5868C30.7472 4.1 26.9077 4 23.0682 4C17.2597 4 11.5496 4.2 5.74107 4.3C4.49768 4.3207 3.25008 4.34141 2 4.36123V40.5824C4.46124 40.6091 6.92247 40.6545 9.38371 40.7C17.3581 40.8 25.3325 40.8 33.3069 41.1C42.4627 41.4 51.717 41.8 60.8728 42.4C71.2099 43.1 81.4487 44.1 91.6874 45.2C96.3537 45.6937 96.7002 46.1875 101.258 46.97C101.373 46.9898 101.472 47.0033 101.588 46.996C101.811 46.982 101.997 46.7971 102 46.5741C102.002 46.4569 101.977 46.3517 101.926 46.3C101.59 45.8734 101.254 45.4468 100.613 45.0203C100.379 44.8653 100.133 44.7117 99.987 44.4729C99.7352 44.0608 99.9242 43.7733 100.603 43.6102C100.631 43.6033 100.66 43.593 100.686 43.5804C100.723 43.5632 100.756 43.5494 100.787 43.5374C100.962 43.4703 101.05 43.1847 100.879 43.1083C100.848 43.0942 100.827 43.0936 100.795 43.081C99.531 42.5849 98.2661 41.9962 96.9052 41.7C96.5689 41.6146 96.3897 41.5611 96.3005 41.5288C96.2886 41.5245 96.2784 41.5206 96.2695 41.5171C96.1996 41.525 96.0213 41.5251 95.6254 41.5C93.7549 41.4 92.8688 41.4 91.0967 41.4C90.7029 41.4 90.3091 41.3 89.9153 41.2C89.2262 41 88.537 40.8 87.8479 40.7C87.4541 40.6 86.9619 40.6 86.5681 40.5C84.8944 40.2 83.2208 39.4 81.3502 40C81.0366 40.0796 80.4733 39.9056 80.1077 39.6799C79.9401 39.5764 79.812 39.4185 79.7525 39.2308C79.6465 38.8958 79.6249 38.4525 79.775 38.3C80.0704 38 80.6611 38 81.1533 38C84.2053 38.3 87.1587 38.6 90.1122 39C94.3456 39.6 92.475 39.3 96.7084 39.8C97.0078 39.8 97.1169 39.3113 96.8352 39.2099C96.8257 39.2065 96.8162 39.2032 96.8068 39.2C94.444 38.6 95.1331 38.5 92.6719 38.1C89.8169 37.7 89.9153 37.8 86.9618 37.4C86.0758 37.3 84.9929 37 84.4022 36.5C83.4177 35.7 81.3502 35.2 80.0704 35.8C78.4952 36.5 76.92 36.3 75.8371 35.2C75.6402 35 75.3448 34.9 75.0495 34.9C73.6712 34.9 72.2929 34.9 71.013 34.8C70.6436 34.8 70.2741 34.4479 69.9047 34.2393C69.8569 34.2122 69.7961 34.1611 69.7895 34.1066C69.7719 33.9587 69.9144 33.8765 70.0614 33.8523C70.3786 33.8 70.6958 33.8 71.013 33.8C71.3084 33.8 71.5053 33.9 71.7022 33.9C73.9665 34.2 76.3293 33.6 78.4952 34.7C78.6921 34.8 78.9874 34.7 79.1843 34.7C81.4487 34.9 83.6146 35.2 85.8789 35.3C87.0603 35.4 88.4386 35.6 89.4231 35.2C90.5794 34.7483 90.4499 34.8679 91.0676 35.3377C91.2148 35.4497 91.366 35.573 91.5337 35.6509C91.7603 35.7562 91.9929 35.6331 92.214 35.5167C93.2567 34.9677 93.2847 35.3087 94.5424 35.4C96.2161 35.5 97.0037 35.4 98.6773 35.4C98.7031 35.4 98.7271 35.3983 98.7499 35.3951C98.9782 35.3632 99.0153 35.0291 98.8126 34.9193C98.7939 34.9092 98.7655 34.8971 98.7451 34.891C98.0661 34.6882 97.3858 34.2985 96.6099 34.2C93.3611 33.7 93.4595 33.4 90.2107 33C85.0913 32.4 79.8735 31.9 74.6557 31.3C73.9875 31.2031 73.4119 30.9181 72.7495 30.7186C71.1984 30.8 69.7274 30.8 68.2565 30.8ZM78.6786 38.7452C78.7537 38.8424 78.6812 39 78.5584 39H78.003C77.8651 39 77.7273 38.996 77.5895 38.992C77.127 38.9786 76.6644 38.9652 76.2019 39.1029C76.0211 39.1567 75.8432 39.223 75.6578 39.2584C74.9012 39.4028 74.1827 39.3961 73.8143 38.6043C73.7828 38.5366 73.7345 38.464 73.7441 38.39C73.7696 38.1929 73.9904 38.1075 74.1888 38.1182C74.8491 38.154 75.4496 38.1753 76.0233 38.1957C76.7698 38.2222 77.4711 38.2471 78.1999 38.3C78.3344 38.3 78.5149 38.5335 78.6786 38.7452ZM71.9742 38.715C72.186 38.8379 72.1625 39.1756 71.9187 39.199C71.894 39.2013 71.8869 39.197 71.8629 39.1905C71.5914 39.1162 71.3667 38.9944 71.1549 38.8595C71.0457 38.7899 71.0535 38.6226 71.1607 38.55C71.3108 38.4484 71.5029 38.4476 71.6613 38.5358C71.7597 38.5905 71.854 38.6453 71.9483 38.7C71.9569 38.705 71.9656 38.71 71.9742 38.715ZM64.6138 37.9C65.7952 38.4 66.9766 38.6 68.2565 37.8C68.435 37.6791 68.7215 37.6678 69.0289 37.6557C69.0698 37.6541 69.1111 37.6525 69.1526 37.6506C69.4031 37.6391 69.6394 37.8345 69.6574 38.0847C69.6597 38.1171 69.6621 38.1494 69.6643 38.1816C69.7009 38.7162 69.3831 39.2 68.8472 39.2C68.4534 39.15 68.035 39.125 67.6165 39.1C67.1981 39.075 66.7797 39.05 66.3859 39C66.0906 38.95 65.7952 38.925 65.4999 38.9C65.2045 38.875 64.9092 38.85 64.6138 38.8C64.1708 38.75 63.7524 38.7 63.334 38.65C63.0177 38.6122 62.7014 38.5744 62.3744 38.5366C62.1615 38.512 61.9525 38.4613 61.7429 38.417C61.7152 38.4111 61.6878 38.4056 61.6603 38.4C61.654 38.3987 61.6478 38.3974 61.6414 38.3962C61.4659 38.3604 61.4194 38.1586 61.5619 38.05C61.5699 38.0439 61.5779 38.0378 61.5859 38.0317C61.7739 37.8882 61.9644 37.7434 62.1526 37.6C62.3351 37.4609 62.5701 37.4383 62.7949 37.4846C62.9679 37.5203 63.1449 37.5492 63.3229 37.5782C63.7604 37.6495 64.2045 37.7218 64.6138 37.9ZM63.4058 40.291C63.5591 40.4037 63.5957 40.6433 63.4489 40.7643C63.3593 40.8381 63.2621 40.9042 63.1504 40.9555C63.0785 40.9886 63.0014 41.0437 62.9267 41.0173C62.9144 41.013 62.9015 41.0071 62.8883 41C62.6652 40.8805 62.6889 40.5553 62.8665 40.3749L62.9058 40.3349C63.0398 40.1988 63.2519 40.1778 63.4058 40.291ZM61.669 37.3076C61.6294 37.3026 61.6093 37.2519 61.6373 37.2235C61.651 37.2095 61.6722 37.206 61.6897 37.2149C61.8768 37.3097 62.0639 37.4 62.2511 37.4C62.1526 37.4 62.0295 37.375 61.9065 37.35C61.8249 37.3334 61.7434 37.3169 61.669 37.3076ZM62.4479 30.4C62.2256 30.4 62.2642 30.1015 62.4866 30.1001C62.5056 30.1 62.5254 30.1 62.5464 30.1H63.4834C63.5096 30.1 63.5309 30.0787 63.5309 30.0525C63.5309 30.0244 63.5552 30.0025 63.5831 30.0053L66.4844 30.3C66.5331 30.3 66.5818 30.3245 66.6305 30.3613C66.6909 30.407 66.6546 30.5257 66.5828 30.55C66.509 30.575 66.4352 30.6 66.3859 30.6C65.0076 30.6 63.7278 30.5 62.4479 30.4ZM65.4531 37.651C65.3917 37.5018 65.4796 37.3423 65.6219 37.2662C65.6901 37.2297 65.7573 37.2 65.7952 37.2C65.9144 37.2 65.9976 37.2733 66.0883 37.3534C66.1804 37.4346 66.2002 37.5899 66.1078 37.6707C66.0627 37.7101 66.0074 37.7564 65.9364 37.8134C65.801 37.9219 65.5978 37.9114 65.5091 37.7623C65.4871 37.7252 65.4684 37.6881 65.4531 37.651ZM65.8645 34.5055C65.7689 34.4763 65.7708 34.3309 65.8674 34.3052C66.1309 34.2353 66.4189 34.1529 66.783 34.0319C66.8451 34.0113 66.9121 34.0081 66.9749 34.0265C67.11 34.0659 67.2461 34.1151 67.3871 34.1661C67.5713 34.2327 67.5633 34.5382 67.3717 34.5784C67.1887 34.6168 66.9999 34.6553 66.8107 34.6937C66.7901 34.6979 66.7691 34.7001 66.7481 34.6996C66.4761 34.6925 66.1607 34.5961 65.8645 34.5055ZM59.3551 30.004C59.4574 30.0784 59.4409 30.2847 59.319 30.3187C59.1478 30.3664 58.9765 30.4 58.8053 30.4C56.4425 30.3 54.0797 30.1 51.8154 29.9C51.2407 29.8027 50.666 29.8001 50.0914 29.8C50.0648 29.8 50.0433 29.8215 50.0433 29.8481C50.0433 29.8761 50.0195 29.8981 49.9915 29.8959C49.3676 29.846 48.721 29.773 48.0743 29.7C47.4098 29.625 46.7453 29.55 46.1053 29.5C45.942 29.5 45.8088 29.4694 45.689 29.4252C45.6181 29.399 45.6382 29.2686 45.7115 29.25C45.81 29.225 45.9084 29.2 46.0069 29.2C47.3852 29.2 48.8619 29.2 50.2402 29.3C53.0952 29.4 56.0487 29.6 58.9038 29.8C59.0744 29.8 59.2122 29.9001 59.3551 30.004ZM54.478 37.4354C54.8256 37.5136 54.8065 38.0325 54.4882 38.1928C54.4816 38.1962 54.475 38.1995 54.4685 38.2028C54.35 38.2626 54.2085 38.2537 54.0984 38.1796C53.9728 38.0951 53.8508 38.0144 53.7405 37.9454C53.6381 37.8814 53.6329 37.71 53.73 37.6382C53.8853 37.5233 54.0519 37.4 54.1782 37.4C54.2781 37.4 54.378 37.4129 54.478 37.4354ZM52.4859 36.6689C52.6131 36.7268 52.6319 36.91 52.5097 36.9776C52.2856 37.1014 52.0326 37.2126 51.7775 37.2839C51.7374 37.2951 51.6986 37.3129 51.6573 37.3182C51.562 37.3304 51.451 37.2729 51.3415 37.1898C51.173 37.0619 51.2112 36.7861 51.3769 36.6546C51.5899 36.4858 51.8701 36.4226 52.1252 36.5164C52.2588 36.5655 52.3764 36.619 52.4859 36.6689ZM47.9831 39.9873C47.8572 40.0623 47.7017 40.0608 47.571 39.9944L46.8111 39.6084C46.7315 39.568 46.7388 39.4487 46.8219 39.4164C47.0789 39.3167 47.3797 39.2 47.6805 39.2C47.933 39.2 48.145 39.3233 48.3425 39.4382C48.4436 39.497 48.4412 39.6982 48.3417 39.7599C48.3167 39.7754 48.2915 39.7914 48.2659 39.808L48.2083 39.8454C48.139 39.8905 48.0654 39.9383 47.9831 39.9873ZM49.6151 13.1675C49.5748 13.1879 49.5273 13.1879 49.487 13.1675L49.3474 13.0966C49.25 13.0471 49.2756 12.8303 49.3751 12.7849C49.4725 12.7404 49.561 12.7 49.6495 12.7C49.652 12.7 49.6545 12.7001 49.6571 12.7002C49.8757 12.7106 49.8673 13.0394 49.6722 13.1385L49.6151 13.1675ZM43.8388 29.2534C43.9308 29.3346 43.9445 29.4865 43.8322 29.536C43.7452 29.5743 43.6454 29.6 43.5457 29.6C43.2211 29.6 42.8965 29.5891 42.5683 29.5781C41.9013 29.5558 41.2196 29.533 40.4937 29.6C40.0999 29.6 39.7307 29.575 39.3615 29.55C38.9924 29.525 38.6232 29.5 38.2294 29.5C37.9957 29.5 37.8236 29.4374 37.6156 29.3617C37.5595 29.3413 37.5595 29.2587 37.6156 29.2383C37.7845 29.1769 37.9297 29.124 38.1034 29.1063C38.187 29.0978 38.2711 29.0936 38.3544 29.0828C38.9715 29.0025 39.5119 29.0001 40.0499 29C40.0775 29 40.0999 28.9776 40.0999 28.95C40.0999 28.9224 40.1222 28.9 40.1499 28.9001C41.1512 28.9029 42.235 28.9894 43.3241 29.0813L43.5457 29.1C43.6649 29.1 43.748 29.1733 43.8388 29.2534ZM31.6333 28.7C33.11 28.7 34.5868 28.7 36.0635 28.8C36.2139 28.8 36.4218 28.9167 36.5993 29.0164C36.6561 29.0483 36.65 29.1386 36.5914 29.1668C36.5428 29.1902 36.4962 29.2151 36.4504 29.2395C36.2951 29.3223 36.1492 29.4 35.965 29.4C34.2914 29.4 32.7162 29.3 31.141 29.2L19.9178 28.9C19.7681 28.9 19.5931 28.9 19.4184 28.887C19.0921 28.8626 18.7571 28.8039 18.4682 28.6503C18.4615 28.6467 18.4547 28.6431 18.448 28.6395C18.3931 28.6103 18.4136 28.4614 18.4736 28.4454C18.5831 28.4162 18.7014 28.3779 18.8218 28.3376C18.8766 28.3193 18.9333 28.3599 18.9333 28.4176C18.9333 28.4634 18.9699 28.5009 19.0157 28.5019C21.1049 28.5506 23.1941 28.5753 25.2833 28.6C27.3999 28.625 29.5166 28.65 31.6333 28.7ZM11.5767 28.3055C11.8757 28.3663 11.8761 28.8351 11.5845 28.925C11.5323 28.9411 11.4796 28.9579 11.4261 28.9755C11.3779 28.9914 11.3265 28.9957 11.2766 28.9866C10.9621 28.9289 10.6488 28.8454 10.3515 28.7661C10.2134 28.7292 10.2212 28.5082 10.3621 28.4844L11.4238 28.3046C11.442 28.3015 11.4604 28.3 11.4788 28.3H11.5219C11.5403 28.3 11.5587 28.3018 11.5767 28.3055ZM7.90462 28.4037C8.16545 28.4238 8.16858 28.8 7.90697 28.8C6.62713 28.7 5.44573 28.7 3.96899 28.6C3.84916 28.6 3.87104 28.4614 3.9831 28.4189C4.00764 28.4096 4.03071 28.4027 4.05354 28.4006C4.06276 28.3998 4.07208 28.3992 4.08122 28.3977C4.59144 28.3124 5.02955 28.3016 5.58736 28.3002C5.75516 28.2998 5.92243 28.3158 6.08903 28.3359C6.62012 28.4 7.21432 28.4 7.80852 28.4C7.84175 28.4 7.87374 28.4013 7.90462 28.4037ZM39.5613 13.0883C39.2701 13.0158 39.2706 12.6233 39.5703 12.6068C39.6503 12.6024 39.7286 12.6 39.8046 12.6C40.1026 12.6 40.4571 12.6573 40.8252 12.7285C40.9045 12.7438 40.9049 12.8581 40.826 12.875C40.4877 12.9473 40.1494 13.0197 39.662 13.092C39.6262 13.0973 39.5965 13.0971 39.5613 13.0883ZM57.4843 37.821C57.6383 37.9457 57.8233 38.0122 57.9774 37.8877C57.9901 37.8775 58.003 37.867 58.0162 37.8562C58.1529 37.7447 58.1489 37.4609 57.996 37.3729C57.9538 37.3486 57.9119 37.3243 57.87 37.3C57.804 37.2617 57.7379 37.2233 57.6705 37.185C57.4692 37.0706 57.2157 37.1161 57.0023 37.2059C56.9102 37.2446 56.9125 37.352 56.9915 37.4132C57.0874 37.4876 57.1834 37.5688 57.2794 37.65C57.2886 37.6578 57.2979 37.6657 57.3071 37.6735C57.3662 37.7235 57.4253 37.7732 57.4843 37.821ZM82.5781 36.1764C82.433 36.0673 82.2358 36.0663 82.0894 36.1738C82.0815 36.1796 82.0737 36.1853 82.066 36.191C82.0215 36.2237 81.9818 36.2529 81.9428 36.28C81.8635 36.3351 81.8635 36.4647 81.9472 36.5128C82.0059 36.5465 82.0684 36.5824 82.1334 36.6179C82.3883 36.7569 82.685 36.785 82.9254 36.6222C82.997 36.5738 82.9865 36.4473 82.9111 36.405C82.7964 36.3406 82.6912 36.2614 82.5781 36.1764Z" fill="#36BA5F"/>
<path fill-rule="evenodd" clip-rule="evenodd" d="M61.669 37.3076C61.6294 37.3026 61.6093 37.2519 61.6373 37.2235C61.651 37.2095 61.6722 37.206 61.6897 37.2149C61.8768 37.3097 62.0639 37.4 62.2511 37.4C62.1526 37.4 62.0295 37.375 61.9065 37.35C61.8249 37.3334 61.7434 37.3169 61.669 37.3076ZM72.9354 30.7084C72.8733 30.7119 72.8113 30.7153 72.7495 30.7186C72.7286 30.7123 72.7077 30.7061 72.6867 30.7L72.9354 30.7084ZM82.066 36.191C82.0737 36.1853 82.0815 36.1796 82.0894 36.1738C82.2358 36.0663 82.433 36.0673 82.5781 36.1764C82.6912 36.2614 82.7964 36.3406 82.9111 36.405C82.9865 36.4473 82.997 36.5738 82.9254 36.6222C82.685 36.785 82.3883 36.7569 82.1334 36.6179C82.0684 36.5824 82.0059 36.5465 81.9472 36.5128C81.8635 36.4647 81.8635 36.3351 81.9428 36.28C81.9818 36.2529 82.0215 36.2237 82.066 36.191Z" fill="#36BA5F"/>
</g>
<defs>
<filter id="filter0_d" x="0" y="0" width="108" height="50.998" filterUnits="userSpaceOnUse" color-interpolation-filters="sRGB">
<feFlood flood-opacity="0" result="BackgroundImageFix"/>
<feColorMatrix in="SourceAlpha" type="matrix" values="0 0 0 0 0 0 0 0 0 0 0 0 0 0 0 0 0 0 127 0"/>
<feOffset dx="2"/>
<feGaussianBlur stdDeviation="2"/>
<feColorMatrix type="matrix" values="0 0 0 0 0.211765 0 0 0 0 0.729412 0 0 0 0 0.372549 0 0 0 0.6 0"/>
<feBlend mode="normal" in2="BackgroundImageFix" result="effect1_dropShadow"/>
<feBlend mode="normal" in="SourceGraphic" in2="effect1_dropShadow" result="shape"/>
</filter>
</defs>
</svg>
