<svg width="173" height="50" viewBox="0 0 173 50" fill="none" xmlns="http://www.w3.org/2000/svg">
<path d="M0 24.6522C0 12.0407 11.1365 1.81705 24.8741 1.81705C38.6116 1.81705 49.7481 12.0407 49.7481 24.6522C49.7481 25.2122 49.7262 25.7675 49.683 26.3174C48.9132 36.1236 41.3983 44.2143 31.3762 46.6994C31.3282 46.7113 31.2802 46.723 31.2321 46.7347C28.1169 47.4384 24.9761 45.561 24.1421 42.4485C23.2872 39.2581 25.1893 35.9955 28.3798 35.1406L29.1762 34.9264C30.8106 34.4298 32.2628 33.6249 33.5327 32.5116C34.353 31.7835 35.0265 30.9808 35.5533 30.1035C36.4986 28.529 36.9713 26.7141 36.9713 24.6587V10.5162H29.8455V25.1425C29.8455 26.532 29.3898 27.6361 28.4784 28.4549C27.5669 29.2488 26.3655 29.6458 24.8741 29.6458C23.3826 29.6458 22.1812 29.2488 21.2697 28.4549C20.3583 27.6361 19.9026 26.532 19.9026 25.1425V10.5162H12.7768V24.6587C12.7768 27.909 13.9092 30.539 16.174 32.5488C17.9852 34.1362 20.2027 35.0888 22.8264 35.4067C21.1714 37.5467 20.4995 40.4077 21.2537 43.2225C21.7063 44.9115 22.6118 46.3581 23.8046 47.4667C10.5631 46.9525 0 36.9348 0 24.6522Z" fill="#141414"/>
<path d="M68 13.5696V2.59843H72.9947V13.9449C72.9947 15.0227 73.3141 15.8793 73.9529 16.5144C74.5918 17.1304 75.4339 17.4383 76.4793 17.4383C77.5247 17.4383 78.3668 17.1304 79.0057 16.5144C79.6445 15.8793 79.9639 15.0227 79.9639 13.9449V2.59843H84.9586V13.5696C84.9586 16.0525 84.1552 18.0831 82.5484 19.6614C80.9416 21.2205 78.9186 22 76.4793 22C74.0013 22 71.9686 21.2301 70.3812 19.6903C68.7937 18.1312 68 16.091 68 13.5696Z" fill="black"/>
<path d="M87.9208 14.3491V10.1916H95.4708V14.3491H87.9208Z" fill="black"/>
<path d="M98.5444 21.6535V2.59843H111.554V7.07349H103.539V10.7113H110.044V15.1864H103.539V21.6535H98.5444Z" fill="black"/>
<path d="M123.208 7.21785V11.6063H122.018C120.856 11.6063 119.985 11.8854 119.404 12.4436C118.843 13.0017 118.562 13.8775 118.562 15.0709V21.6535H113.567V7.21785H118.126V8.74803C119.056 7.57393 120.275 6.98688 121.785 6.98688C122.269 6.98688 122.744 7.06387 123.208 7.21785Z" fill="black"/>
<path d="M138.701 16.168H129.408C129.95 17.2651 131.034 17.8136 132.661 17.8136C133.938 17.8136 135.206 17.4383 136.465 16.6877L138.265 20.0656C136.561 21.3552 134.635 22 132.486 22C130.125 22 128.169 21.2782 126.621 19.8346C125.091 18.3911 124.326 16.5914 124.326 14.4357C124.326 12.3185 125.072 10.5284 126.562 9.06562C128.072 7.6028 129.912 6.87139 132.08 6.87139C134.132 6.87139 135.797 7.53543 137.074 8.86352C138.372 10.1916 139.02 11.8084 139.02 13.7139C139.02 14.5416 138.914 15.3596 138.701 16.168ZM129.234 12.9344H134.287C134.267 12.2992 134.025 11.7795 133.561 11.3753C133.096 10.9711 132.535 10.769 131.877 10.769C131.238 10.769 130.686 10.9615 130.221 11.3465C129.757 11.7122 129.428 12.2415 129.234 12.9344Z" fill="black"/>
<path d="M140.25 19.2283L142.573 16.2835C143.832 17.4768 145.167 18.0735 146.581 18.0735C147.432 18.0735 147.858 17.8618 147.858 17.4383C147.858 17.1881 147.578 16.9475 147.016 16.7165L145.39 16.0525C143.899 15.4558 142.825 14.811 142.167 14.1181C141.508 13.4252 141.179 12.5206 141.179 11.4042C141.179 9.99912 141.683 8.89239 142.689 8.08399C143.715 7.27559 145.09 6.87139 146.813 6.87139C149.097 6.87139 150.917 7.57393 152.272 8.979L149.92 12.0105C148.952 11.1829 147.926 10.769 146.842 10.769C146.164 10.769 145.826 10.9519 145.826 11.3176C145.826 11.5871 146.155 11.8469 146.813 12.0971L148.265 12.6745C149.794 13.2712 150.878 13.9064 151.517 14.5801C152.175 15.2345 152.504 16.1102 152.504 17.2073C152.504 18.6894 151.943 19.8635 150.82 20.7297C149.678 21.5766 148.236 22 146.493 22C145.196 22 143.996 21.7594 142.893 21.2782C141.809 20.797 140.928 20.1137 140.25 19.2283Z" fill="black"/>
<path d="M169 12.7612V21.6535H164.005V13.4829C164.005 12.8478 163.802 12.3377 163.396 11.9528C163.008 11.5486 162.505 11.3465 161.886 11.3465C161.266 11.3465 160.763 11.5486 160.376 11.9528C159.988 12.3377 159.795 12.8478 159.795 13.4829V21.6535H154.8V0H159.795V8.22835C160.821 7.32371 162.079 6.87139 163.57 6.87139C165.177 6.87139 166.483 7.41995 167.49 8.51706C168.497 9.59493 169 11.0096 169 12.7612Z" fill="black"/>
<path opacity="0.7" d="M68.672 30.38C68.644 29.064 69.106 27.9347 70.058 26.992C71.0193 26.0493 72.158 25.5873 73.474 25.606C74.286 25.606 75.028 25.7833 75.7 26.138C76.3813 26.4927 76.918 26.978 77.31 27.594L76.498 28.238C75.742 27.1553 74.7387 26.614 73.488 26.614C72.4427 26.614 71.5653 26.9733 70.856 27.692C70.156 28.4107 69.806 29.3067 69.806 30.38C69.806 31.4533 70.156 32.3493 70.856 33.068C71.5653 33.7867 72.4427 34.146 73.488 34.146C74.7387 34.146 75.742 33.6047 76.498 32.522L77.31 33.166C76.918 33.782 76.3813 34.2673 75.7 34.622C75.028 34.9767 74.286 35.154 73.474 35.154C72.158 35.1727 71.0193 34.7107 70.058 33.768C69.106 32.8253 68.644 31.696 68.672 30.38ZM84.5878 30.8V35H83.5798V34.118C83.0571 34.8087 82.2918 35.154 81.2838 35.154C80.5745 35.154 80.0005 34.9813 79.5618 34.636C79.1231 34.2813 78.9038 33.8147 78.9038 33.236C78.9038 32.6573 79.1278 32.1953 79.5758 31.85C80.0238 31.5047 80.6165 31.332 81.3538 31.332H83.5098V30.744C83.5098 30.1933 83.3605 29.7687 83.0618 29.47C82.7725 29.1713 82.3711 29.022 81.8578 29.022C81.0925 29.022 80.4298 29.386 79.8698 30.114L79.1558 29.526C79.7625 28.5273 80.6865 28.028 81.9278 28.028C82.7491 28.028 83.3978 28.2707 83.8738 28.756C84.3498 29.232 84.5878 29.9133 84.5878 30.8ZM83.5098 32.382V32.214H81.4798C80.4998 32.214 80.0098 32.536 80.0098 33.18C80.0098 33.516 80.1405 33.782 80.4018 33.978C80.6725 34.1647 81.0131 34.258 81.4238 34.258C81.9931 34.258 82.4831 34.076 82.8938 33.712C83.3045 33.348 83.5098 32.9047 83.5098 32.382ZM87.1543 35V28.028H87.5463L90.7803 31.864L94.0003 28.028H94.3783V35H93.3003V30.394L90.9763 33.166H90.5563L88.2323 30.394V35H87.1543ZM96.542 31.584C96.5233 30.6133 96.8686 29.7733 97.578 29.064C98.2966 28.3547 99.1413 28.0093 100.112 28.028C101.092 28.0093 101.937 28.3547 102.646 29.064C103.355 29.7733 103.701 30.6133 103.682 31.584C103.701 32.5453 103.351 33.3853 102.632 34.104C101.913 34.8133 101.069 35.1587 100.098 35.14C99.1273 35.1587 98.2873 34.8133 97.578 34.104C96.8686 33.3853 96.5233 32.5453 96.542 31.584ZM102.576 31.598C102.576 30.87 102.338 30.2587 101.862 29.764C101.395 29.2693 100.812 29.022 100.112 29.022C99.412 29.022 98.824 29.2693 98.348 29.764C97.8813 30.2493 97.648 30.8607 97.648 31.598C97.648 32.3167 97.8813 32.9233 98.348 33.418C98.824 33.9033 99.4073 34.146 100.098 34.146C100.789 34.146 101.372 33.8987 101.848 33.404C102.333 32.9093 102.576 32.3073 102.576 31.598ZM111.877 31.92H106.487C106.552 32.592 106.818 33.1333 107.285 33.544C107.752 33.9547 108.321 34.16 108.993 34.16C109.768 34.16 110.463 33.852 111.079 33.236L111.709 33.964C110.944 34.7573 110.034 35.154 108.979 35.154C107.962 35.154 107.103 34.8133 106.403 34.132C105.712 33.4413 105.367 32.5967 105.367 31.598C105.367 30.6087 105.703 29.7687 106.375 29.078C107.056 28.378 107.882 28.028 108.853 28.028C109.74 28.028 110.477 28.3173 111.065 28.896C111.662 29.4747 111.961 30.212 111.961 31.108C111.961 31.3693 111.933 31.64 111.877 31.92ZM106.529 30.968H110.855C110.846 30.3707 110.65 29.8947 110.267 29.54C109.884 29.1853 109.404 29.008 108.825 29.008C108.256 29.008 107.761 29.19 107.341 29.554C106.921 29.9087 106.65 30.38 106.529 30.968ZM117.849 31.584C117.83 30.6133 118.175 29.7733 118.885 29.064C119.594 28.3547 120.439 28.0093 121.419 28.028C122.007 28.028 122.543 28.1587 123.029 28.42C123.514 28.6813 123.915 29.0453 124.233 29.512L123.463 30.128C122.921 29.3907 122.245 29.022 121.433 29.022C120.733 29.022 120.145 29.274 119.669 29.778C119.193 30.2727 118.955 30.8747 118.955 31.584C118.955 32.3027 119.193 32.914 119.669 33.418C120.145 33.9127 120.733 34.16 121.433 34.16C122.235 34.16 122.907 33.796 123.449 33.068L124.219 33.67C123.547 34.6593 122.613 35.154 121.419 35.154C120.429 35.154 119.585 34.8087 118.885 34.118C118.194 33.418 117.849 32.5733 117.849 31.584ZM131.916 32.942C131.916 33.558 131.692 34.0573 131.244 34.44C130.805 34.8133 130.222 35 129.494 35H126.33V28.182H129.144C129.816 28.182 130.348 28.3453 130.74 28.672C131.141 28.9987 131.342 29.4373 131.342 29.988C131.342 30.5573 131.104 30.996 130.628 31.304C131.486 31.6027 131.916 32.1487 131.916 32.942ZM127.408 29.148V30.968H129.158C129.904 30.968 130.278 30.66 130.278 30.044C130.278 29.4467 129.904 29.148 129.158 29.148H127.408ZM130.838 32.942C130.838 32.6247 130.712 32.3773 130.46 32.2C130.217 32.0133 129.872 31.92 129.424 31.92H127.408V34.048H129.424C129.862 34.048 130.208 33.95 130.46 33.754C130.712 33.5487 130.838 33.278 130.838 32.942ZM140.245 31.92H134.855C134.92 32.592 135.186 33.1333 135.653 33.544C136.12 33.9547 136.689 34.16 137.361 34.16C138.136 34.16 138.831 33.852 139.447 33.236L140.077 33.964C139.312 34.7573 138.402 35.154 137.347 35.154C136.33 35.154 135.471 34.8133 134.771 34.132C134.08 33.4413 133.735 32.5967 133.735 31.598C133.735 30.6087 134.071 29.7687 134.743 29.078C135.424 28.378 136.25 28.028 137.221 28.028C138.108 28.028 138.845 28.3173 139.433 28.896C140.03 29.4747 140.329 30.212 140.329 31.108C140.329 31.3693 140.301 31.64 140.245 31.92ZM134.897 30.968H139.223C139.214 30.3707 139.018 29.8947 138.635 29.54C138.252 29.1853 137.772 29.008 137.193 29.008C136.624 29.008 136.129 29.19 135.709 29.554C135.289 29.9087 135.018 30.38 134.897 30.968ZM141.654 28.182H142.998L145.812 31.304L142.704 35H141.388L144.51 31.304L141.654 28.182ZM145.952 35V28.182H147.03V35H145.952ZM148.486 31.276L151.622 35H150.278L147.17 31.304L149.984 28.182H151.314L148.486 31.276ZM159.207 31.92H153.817C153.883 32.592 154.149 33.1333 154.615 33.544C155.082 33.9547 155.651 34.16 156.323 34.16C157.098 34.16 157.793 33.852 158.409 33.236L159.039 33.964C158.274 34.7573 157.364 35.154 156.309 35.154C155.292 35.154 154.433 34.8133 153.733 34.132C153.043 33.4413 152.697 32.5967 152.697 31.598C152.697 30.6087 153.033 29.7687 153.705 29.078C154.387 28.378 155.213 28.028 156.183 28.028C157.07 28.028 157.807 28.3173 158.395 28.896C158.993 29.4747 159.291 30.212 159.291 31.108C159.291 31.3693 159.263 31.64 159.207 31.92ZM153.859 30.968H158.185C158.176 30.3707 157.98 29.8947 157.597 29.54C157.215 29.1853 156.734 29.008 156.155 29.008C155.586 29.008 155.091 29.19 154.671 29.554C154.251 29.9087 153.981 30.38 153.859 30.968ZM167.485 31.92H162.095C162.161 32.592 162.427 33.1333 162.893 33.544C163.36 33.9547 163.929 34.16 164.601 34.16C165.376 34.16 166.071 33.852 166.687 33.236L167.317 33.964C166.552 34.7573 165.642 35.154 164.587 35.154C163.57 35.154 162.711 34.8133 162.011 34.132C161.321 33.4413 160.975 32.5967 160.975 31.598C160.975 30.6087 161.311 29.7687 161.983 29.078C162.665 28.378 163.491 28.028 164.461 28.028C165.348 28.028 166.085 28.3173 166.673 28.896C167.271 29.4747 167.569 30.212 167.569 31.108C167.569 31.3693 167.541 31.64 167.485 31.92ZM162.137 30.968H166.463C166.454 30.3707 166.258 29.8947 165.875 29.54C165.493 29.1853 165.012 29.008 164.433 29.008C163.864 29.008 163.369 29.19 162.949 29.554C162.529 29.9087 162.259 30.38 162.137 30.968ZM74.776 45.942C74.776 46.558 74.552 47.0573 74.104 47.44C73.6653 47.8133 73.082 48 72.354 48H69.19V41.182H72.004C72.676 41.182 73.208 41.3453 73.6 41.672C74.0013 41.9987 74.202 42.4373 74.202 42.988C74.202 43.5573 73.964 43.996 73.488 44.304C74.3467 44.6027 74.776 45.1487 74.776 45.942ZM70.268 42.148V43.968H72.018C72.7647 43.968 73.138 43.66 73.138 43.044C73.138 42.4467 72.7647 42.148 72.018 42.148H70.268ZM73.698 45.942C73.698 45.6247 73.572 45.3773 73.32 45.2C73.0773 45.0133 72.732 44.92 72.284 44.92H70.268V47.048H72.284C72.7227 47.048 73.068 46.95 73.32 46.754C73.572 46.5487 73.698 46.278 73.698 45.942ZM80.0991 44.584C80.0804 43.6133 80.4257 42.7733 81.1351 42.064C81.8537 41.3547 82.6984 41.0093 83.6691 41.028C84.6491 41.0093 85.4937 41.3547 86.2031 42.064C86.9124 42.7733 87.2577 43.6133 87.2391 44.584C87.2577 45.5453 86.9077 46.3853 86.1891 47.104C85.4704 47.8133 84.6257 48.1587 83.6551 48.14C82.6844 48.1587 81.8444 47.8133 81.1351 47.104C80.4257 46.3853 80.0804 45.5453 80.0991 44.584ZM86.1331 44.598C86.1331 43.87 85.8951 43.2587 85.4191 42.764C84.9524 42.2693 84.3691 42.022 83.6691 42.022C82.9691 42.022 82.3811 42.2693 81.9051 42.764C81.4384 43.2493 81.2051 43.8607 81.2051 44.598C81.2051 45.3167 81.4384 45.9233 81.9051 46.418C82.3811 46.9033 82.9644 47.146 83.6551 47.146C84.3457 47.146 84.9291 46.8987 85.4051 46.404C85.8904 45.9093 86.1331 45.3073 86.1331 44.598ZM94.1509 47.048H95.2569V49.974H94.1789V48H88.8169V49.974H87.7389V47.048H88.5089C89.0689 46.4693 89.3676 45.1533 89.4049 43.1L89.4469 41.182H94.1509V47.048ZM89.6429 47.048H93.0729V42.148H90.4689L90.4269 43.114C90.3802 45.0647 90.1189 46.376 89.6429 47.048ZM96.8827 48V41.182H97.9607V43.898H101.307V41.182H102.385V48H101.307V44.85H97.9607V48H96.8827ZM104.184 44.584C104.165 43.6133 104.511 42.7733 105.22 42.064C105.939 41.3547 106.783 41.0093 107.754 41.028C108.734 41.0093 109.579 41.3547 110.288 42.064C110.997 42.7733 111.343 43.6133 111.324 44.584C111.343 45.5453 110.993 46.3853 110.274 47.104C109.555 47.8133 108.711 48.1587 107.74 48.14C106.769 48.1587 105.929 47.8133 105.22 47.104C104.511 46.3853 104.165 45.5453 104.184 44.584ZM110.218 44.598C110.218 43.87 109.98 43.2587 109.504 42.764C109.037 42.2693 108.454 42.022 107.754 42.022C107.054 42.022 106.466 42.2693 105.99 42.764C105.523 43.2493 105.29 43.8607 105.29 44.598C105.29 45.3167 105.523 45.9233 105.99 46.418C106.466 46.9033 107.049 47.146 107.74 47.146C108.431 47.146 109.014 46.8987 109.49 46.404C109.975 45.9093 110.218 45.3073 110.218 44.598ZM113.149 48V41.028H113.541L116.775 44.864L119.995 41.028H120.373V48H119.295V43.394L116.971 46.166H116.551L114.227 43.394V48H113.149ZM131.164 46.04C131.164 46.684 130.926 47.1973 130.45 47.58C129.984 47.9627 129.363 48.154 128.588 48.154C127.487 48.154 126.614 47.7153 125.97 46.838L126.698 46.194C127.184 46.838 127.809 47.16 128.574 47.16C129.041 47.16 129.405 47.0527 129.666 46.838C129.928 46.6233 130.058 46.334 130.058 45.97C130.058 45.634 129.928 45.368 129.666 45.172C129.405 44.9667 129.041 44.864 128.574 44.864H127.832V43.912H128.56C129.354 43.912 129.75 43.5947 129.75 42.96C129.75 42.6707 129.643 42.442 129.428 42.274C129.223 42.106 128.924 42.022 128.532 42.022C127.851 42.022 127.282 42.302 126.824 42.862L126.096 42.218C126.675 41.4247 127.501 41.028 128.574 41.028C129.256 41.028 129.797 41.196 130.198 41.532C130.609 41.8587 130.814 42.3113 130.814 42.89C130.814 43.534 130.544 44.024 130.002 44.36C130.777 44.668 131.164 45.228 131.164 46.04ZM138.119 43.8V48H137.111V47.118C136.589 47.8087 135.823 48.154 134.815 48.154C134.106 48.154 133.532 47.9813 133.093 47.636C132.655 47.2813 132.435 46.8147 132.435 46.236C132.435 45.6573 132.659 45.1953 133.107 44.85C133.555 44.5047 134.148 44.332 134.885 44.332H137.041V43.744C137.041 43.1933 136.892 42.7687 136.593 42.47C136.304 42.1713 135.903 42.022 135.389 42.022C134.624 42.022 133.961 42.386 133.401 43.114L132.687 42.526C133.294 41.5273 134.218 41.028 135.459 41.028C136.281 41.028 136.929 41.2707 137.405 41.756C137.881 42.232 138.119 42.9133 138.119 43.8ZM137.041 45.382V45.214H135.011C134.031 45.214 133.541 45.536 133.541 46.18C133.541 46.516 133.672 46.782 133.933 46.978C134.204 47.1647 134.545 47.258 134.955 47.258C135.525 47.258 136.015 47.076 136.425 46.712C136.836 46.348 137.041 45.9047 137.041 45.382ZM140.336 48V41.182H141.414V48H140.336ZM142.87 44.276L146.076 48H144.718L141.554 44.304L144.424 41.182H145.768L142.87 44.276ZM152.512 43.8V48H151.504V47.118C150.982 47.8087 150.216 48.154 149.208 48.154C148.499 48.154 147.925 47.9813 147.486 47.636C147.048 47.2813 146.828 46.8147 146.828 46.236C146.828 45.6573 147.052 45.1953 147.5 44.85C147.948 44.5047 148.541 44.332 149.278 44.332H151.434V43.744C151.434 43.1933 151.285 42.7687 150.986 42.47C150.697 42.1713 150.296 42.022 149.782 42.022C149.017 42.022 148.354 42.386 147.794 43.114L147.08 42.526C147.687 41.5273 148.611 41.028 149.852 41.028C150.674 41.028 151.322 41.2707 151.798 41.756C152.274 42.232 152.512 42.9133 152.512 43.8ZM151.434 45.382V45.214H149.404C148.424 45.214 147.934 45.536 147.934 46.18C147.934 46.516 148.065 46.782 148.326 46.978C148.597 47.1647 148.938 47.258 149.348 47.258C149.918 47.258 150.408 47.076 150.818 46.712C151.229 46.348 151.434 45.9047 151.434 45.382ZM159.363 46.04C159.363 46.684 159.125 47.1973 158.649 47.58C158.182 47.9627 157.562 48.154 156.787 48.154C155.686 48.154 154.813 47.7153 154.169 46.838L154.897 46.194C155.382 46.838 156.008 47.16 156.773 47.16C157.24 47.16 157.604 47.0527 157.865 46.838C158.126 46.6233 158.257 46.334 158.257 45.97C158.257 45.634 158.126 45.368 157.865 45.172C157.604 44.9667 157.24 44.864 156.773 44.864H156.031V43.912H156.759C157.552 43.912 157.949 43.5947 157.949 42.96C157.949 42.6707 157.842 42.442 157.627 42.274C157.422 42.106 157.123 42.022 156.731 42.022C156.05 42.022 155.48 42.302 155.023 42.862L154.295 42.218C154.874 41.4247 155.7 41.028 156.773 41.028C157.454 41.028 157.996 41.196 158.397 41.532C158.808 41.8587 159.013 42.3113 159.013 42.89C159.013 43.534 158.742 44.024 158.201 44.36C158.976 44.668 159.363 45.228 159.363 46.04ZM167.228 44.92H161.838C161.903 45.592 162.169 46.1333 162.636 46.544C163.102 46.9547 163.672 47.16 164.344 47.16C165.118 47.16 165.814 46.852 166.43 46.236L167.06 46.964C166.294 47.7573 165.384 48.154 164.33 48.154C163.312 48.154 162.454 47.8133 161.754 47.132C161.063 46.4413 160.718 45.5967 160.718 44.598C160.718 43.6087 161.054 42.7687 161.726 42.078C162.407 41.378 163.233 41.028 164.204 41.028C165.09 41.028 165.828 41.3173 166.416 41.896C167.013 42.4747 167.312 43.212 167.312 44.108C167.312 44.3693 167.284 44.64 167.228 44.92ZM161.88 43.968H166.206C166.196 43.3707 166 42.8947 165.618 42.54C165.235 42.1853 164.754 42.008 164.176 42.008C163.606 42.008 163.112 42.19 162.692 42.554C162.272 42.9087 162.001 43.38 161.88 43.968Z" fill="black"/>
</svg>
