<svg width="28" height="28" viewBox="0 0 28 28" fill="none" xmlns="http://www.w3.org/2000/svg">
<path d="M6.10344 0.793237C5.64172 0.755737 5.12844 0.889331 4.655 1.22214C4.23782 1.51277 3.33782 2.22761 2.49641 3.03621C2.07688 3.43933 1.6761 3.85886 1.36672 4.27136C1.055 4.68386 0.783128 5.06121 0.799534 5.60964C0.815941 6.10183 0.865159 7.5573 1.91282 9.78855C2.96047 12.0175 4.9925 15.076 8.95578 19.0417C12.9214 23.0073 15.98 25.0393 18.2089 26.087C20.4378 27.1346 21.8956 27.1839 22.3878 27.2003C22.9339 27.2167 23.3113 26.9448 23.7238 26.6331C24.1363 26.3214 24.5558 25.9229 24.9589 25.5034C25.7652 24.662 26.48 23.762 26.7706 23.3448C27.4339 22.4003 27.3238 21.2846 26.5855 20.7667C26.1214 20.4409 21.8534 17.6003 21.2113 17.2065C20.5597 16.8081 19.8097 16.9885 19.1394 17.3425C18.612 17.6214 17.1847 18.4393 16.7769 18.6737C16.4698 18.4792 15.305 17.7034 12.7995 15.1979C10.2917 12.6925 9.51828 11.5276 9.32375 11.2206C9.55813 10.8128 10.3738 9.39246 10.655 8.85574C11.0066 8.18777 11.2034 7.43074 10.7839 6.77449C10.6081 6.49558 9.80891 5.27918 9.00266 4.05808C8.19407 2.83699 7.42766 1.67917 7.22844 1.40261V1.40027C6.96828 1.04167 6.56282 0.830737 6.10344 0.793237ZM5.99328 2.01902C6.15735 2.04011 6.25578 2.10574 6.25578 2.10574C6.35188 2.23933 7.19328 3.50027 7.99953 4.71902C8.80578 5.94011 9.62844 7.19167 9.77141 7.41902C9.79485 7.45417 9.82766 7.85261 9.59328 8.29558V8.29792C9.32844 8.80183 8.09328 10.9604 8.09328 10.9604L7.92219 11.2628L8.09797 11.5628C8.09797 11.5628 9.01907 13.1167 11.9488 16.0464C14.8808 18.976 16.4347 19.8995 16.4347 19.8995L16.7347 20.0753L17.037 19.9042C17.037 19.9042 19.1909 18.6714 19.6995 18.4042C20.1425 18.1721 20.5409 18.2026 20.5878 18.2307C21.0027 18.4862 25.6128 21.5495 25.8964 21.7487C25.9058 21.7557 26.1566 22.1354 25.7909 22.6557H25.7886C25.5683 22.9721 24.8464 23.8885 24.0941 24.6714C23.7167 25.0628 23.33 25.4284 23.0019 25.6745C22.6738 25.9206 22.3808 25.9979 22.4277 26.0003C21.9167 25.9839 20.7894 25.9721 18.7198 24.9995C16.6503 24.0292 13.6972 22.0862 9.80422 18.1909C5.9136 14.3003 3.97063 11.3471 2.99797 9.27527C2.02766 7.20574 2.01594 6.07839 1.99953 5.5698C2.00188 5.61667 2.07922 5.32136 2.32532 4.99324C2.57141 4.66511 2.93469 4.27605 3.3261 3.89871C4.11125 3.14636 5.02532 2.42449 5.34172 2.20418V2.20652C5.60188 2.02371 5.82922 2.00027 5.99328 2.01902Z" fill="#141414"/>
</svg>
